<svg xmlns="http://www.w3.org/2000/svg" width="1600" height="560" viewBox="0 0 1600 560" role="img" aria-labelledby="title desc">
  <title id="title">MissionChief UK Operations Intelligence Platform</title>
  <desc id="desc">A high-detail emergency command centre banner presenting the MissionChief UK verified data platform, intelligence tools and static API.</desc>
  <defs>
    <linearGradient id="bg" x1="0" y1="0" x2="1" y2="1">
      <stop offset="0" stop-color="#040913"/>
      <stop offset="0.46" stop-color="#0a1c2f"/>
      <stop offset="0.72" stop-color="#101b2c"/>
      <stop offset="1" stop-color="#17090f"/>
    </linearGradient>
    <linearGradient id="edge" x1="0" y1="0" x2="1" y2="0">
      <stop offset="0" stop-color="#2eb5ff"/>
      <stop offset="0.48" stop-color="#78d2ff"/>
      <stop offset="0.52" stop-color="#ff777f"/>
      <stop offset="1" stop-color="#d63345"/>
    </linearGradient>
    <linearGradient id="glass" x1="0" y1="0" x2="0" y2="1">
      <stop offset="0" stop-color="#ffffff" stop-opacity="0.10"/>
      <stop offset="1" stop-color="#ffffff" stop-opacity="0.025"/>
    </linearGradient>
    <radialGradient id="blueGlow">
      <stop offset="0" stop-color="#3cbcff" stop-opacity="0.38"/>
      <stop offset="1" stop-color="#3cbcff" stop-opacity="0"/>
    </radialGradient>
    <radialGradient id="redGlow">
      <stop offset="0" stop-color="#ee4051" stop-opacity="0.30"/>
      <stop offset="1" stop-color="#ee4051" stop-opacity="0"/>
    </radialGradient>
    <pattern id="grid" width="42" height="42" patternUnits="userSpaceOnUse">
      <path d="M42 0H0V42" fill="none" stroke="#a8dcff" stroke-opacity="0.045"/>
    </pattern>
    <filter id="blur"><feGaussianBlur stdDeviation="34"/></filter>
    <filter id="shadow"><feDropShadow dx="0" dy="18" stdDeviation="24" flood-color="#000" flood-opacity="0.42"/></filter>
  </defs>

  <rect width="1600" height="560" rx="30" fill="url(#bg)"/>
  <rect width="1600" height="560" rx="30" fill="url(#grid)"/>
  <circle cx="170" cy="90" r="250" fill="url(#blueGlow)" filter="url(#blur)"/>
  <circle cx="1450" cy="490" r="300" fill="url(#redGlow)" filter="url(#blur)"/>
  <rect x="1.5" y="1.5" width="1597" height="557" rx="28.5" fill="none" stroke="#ffffff" stroke-opacity="0.12" stroke-width="3"/>

  <g opacity="0.28">
    <path d="M0 432C220 360 355 468 560 396S910 328 1110 408s314 36 490-44" fill="none" stroke="#3fbaff" stroke-width="3"/>
    <path d="M0 456c242-70 370 35 584-32s340-62 543 17 309 39 473-22" fill="none" stroke="#e94a58" stroke-width="2"/>
  </g>

  <g transform="translate(74 58)">
    <rect width="348" height="38" rx="19" fill="#0c253b" stroke="#3eb8ff" stroke-opacity="0.55"/>
    <circle cx="20" cy="19" r="6" fill="#4cc4ff"/>
    <circle cx="20" cy="19" r="12" fill="none" stroke="#4cc4ff" stroke-opacity="0.26"/>
    <text x="42" y="25" fill="#bfeaff" font-family="Segoe UI,Arial,sans-serif" font-size="14" font-weight="800" letter-spacing="2.1">UNITED KINGDOM · OPERATIONS INTELLIGENCE</text>
  </g>

  <text x="74" y="182" fill="#ffffff" font-family="Segoe UI,Arial,sans-serif" font-size="72" font-weight="900" letter-spacing="2">MISSIONCHIEF UK</text>
  <text x="78" y="235" fill="#82d5ff" font-family="Segoe UI,Arial,sans-serif" font-size="28" font-weight="750" letter-spacing="7">COMMAND INTELLIGENCE PLATFORM</text>
  <text x="78" y="287" fill="#dce9f2" font-family="Segoe UI,Arial,sans-serif" font-size="21">Verified operational data · Interactive planning tools · Versioned static API</text>

  <g transform="translate(78 321)" font-family="Segoe UI,Arial,sans-serif" font-size="13" font-weight="800" letter-spacing="1">
    <rect width="178" height="42" rx="9" fill="#0d293f" stroke="#3eb8ff" stroke-opacity="0.55"/><text x="25" y="27" fill="#d9f3ff">VERIFIED DATA</text>
    <rect x="194" width="190" height="42" rx="9" fill="#112538" stroke="#6bcaff" stroke-opacity="0.42"/><text x="219" y="27" fill="#d9f3ff">INTELLIGENCE TOOLS</text>
    <rect x="400" width="158" height="42" rx="9" fill="#28151c" stroke="#e95360" stroke-opacity="0.52"/><text x="428" y="27" fill="#ffe1e4">STATIC API v1</text>
  </g>

  <g transform="translate(76 404)" filter="url(#shadow)" font-family="Segoe UI,Arial,sans-serif">
    <rect width="844" height="94" rx="18" fill="url(#glass)" stroke="#ffffff" stroke-opacity="0.12"/>
    <g transform="translate(28 18)"><text x="0" y="31" fill="#5bc5ff" font-size="34" font-weight="900">62</text><text x="0" y="57" fill="#aab9c8" font-size="12" font-weight="700" letter-spacing="1.3">MISSIONS</text></g>
    <line x1="185" y1="20" x2="185" y2="74" stroke="#ffffff" stroke-opacity="0.12"/>
    <g transform="translate(215 18)"><text x="0" y="31" fill="#75d4ff" font-size="34" font-weight="900">46</text><text x="0" y="57" fill="#aab9c8" font-size="12" font-weight="700" letter-spacing="1.3">RESOURCES</text></g>
    <line x1="390" y1="20" x2="390" y2="74" stroke="#ffffff" stroke-opacity="0.12"/>
    <g transform="translate(420 18)"><text x="0" y="31" fill="#f3f7fb" font-size="34" font-weight="900">18</text><text x="0" y="57" fill="#aab9c8" font-size="12" font-weight="700" letter-spacing="1.3">INFRASTRUCTURE</text></g>
    <line x1="625" y1="20" x2="625" y2="74" stroke="#ffffff" stroke-opacity="0.12"/>
    <g transform="translate(655 18)"><text x="0" y="31" fill="#ff717b" font-size="34" font-weight="900">11</text><text x="0" y="57" fill="#aab9c8" font-size="12" font-weight="700" letter-spacing="1.3">QUALIFICATIONS</text></g>
  </g>

  <g transform="translate(1045 50)" filter="url(#shadow)">
    <rect width="475" height="448" rx="28" fill="#071421" fill-opacity="0.88" stroke="#73cfff" stroke-opacity="0.24"/>
    <rect x="22" y="22" width="431" height="404" rx="22" fill="none" stroke="#ffffff" stroke-opacity="0.08"/>
    <text x="42" y="58" fill="#90a7ba" font-family="Segoe UI,Arial,sans-serif" font-size="12" font-weight="800" letter-spacing="2.3">LIVE COMMAND POSTURE</text>
    <text x="430" y="58" text-anchor="end" fill="#7fd5ff" font-family="Segoe UI,Arial,sans-serif" font-size="12" font-weight="800">v1.0.0 · STAGE 34</text>

    <g transform="translate(237 220)">
      <circle r="132" fill="#0a1b2c" stroke="#50bfff" stroke-opacity="0.24" stroke-width="2"/>
      <circle r="98" fill="none" stroke="#74ceff" stroke-opacity="0.28" stroke-dasharray="6 8"/>
      <circle r="64" fill="none" stroke="#e85864" stroke-opacity="0.26" stroke-dasharray="3 7"/>
      <path d="M-132 0H132M0-132V132" stroke="#75ceff" stroke-opacity="0.16"/>
      <path d="M-93-93 93 93M93-93-93 93" stroke="#75ceff" stroke-opacity="0.08"/>
      <path d="M0-112A112 112 0 0 1 97-56" fill="none" stroke="#42bdff" stroke-width="5" stroke-linecap="round"/>
      <path d="M97 56A112 112 0 0 1 0 112" fill="none" stroke="#e94a58" stroke-width="5" stroke-linecap="round"/>
      <path d="M0-49 43-24v48L0 49-43 24v-48Z" fill="#102c45" stroke="url(#edge)" stroke-width="3"/>
      <text x="0" y="11" text-anchor="middle" fill="#fff" font-family="Segoe UI,Arial,sans-serif" font-size="31" font-weight="900">UK</text>
      <circle cx="97" cy="-56" r="7" fill="#4cc4ff"/>
      <circle cx="-78" cy="80" r="7" fill="#ff5d68"/>
      <circle cx="-104" cy="-28" r="5" fill="#dcefff"/>
      <circle cx="76" cy="85" r="5" fill="#dcefff"/>
    </g>

    <g font-family="Segoe UI,Arial,sans-serif" font-size="12" font-weight="800" letter-spacing="1.4">
      <text x="48" y="393" fill="#74ceff">SEARCH</text>
      <text x="191" y="393" fill="#e8f5fc">PLAN</text>
      <text x="322" y="393" fill="#ff6d78">VERIFY</text>
      <circle cx="121" cy="389" r="3" fill="#587084"/>
      <circle cx="270" cy="389" r="3" fill="#587084"/>
    </g>
  </g>

  <rect x="0" y="548" width="800" height="12" rx="6" fill="#2aaeff"/>
  <rect x="800" y="548" width="800" height="12" rx="6" fill="#d63345"/>
</svg>
